#!OML:ASF G:\acrobat\cartwheel_test\acrobat_wednesday\Session 1\acrobatwednesday.ASF
:FULLY-SPECIFIED
:DEGREES
133
root 17.6394 18.8098 0.0906127 203.351 95.9126 303.457
lowerback 30.615 1.1453 -2.32143
upperback 15.1906 2.46471 -2.11459
thorax 0.496492 2.09655 -1.70556
lowerneck -23.1307 -5.35048 -8.15854
upperneck 7.2662 -5.49544 6.59828
head 6.3032 -2.27778 2.79728
rclavicle -3.93594e-014 9.54166e-015
rhumerus 12.578 -28.9347 -62.7994
rradius 43.2013
rwrist -22.6246
rhand -24.3454 363.15
rfingers 7.12502
rthumb 2.14382 -386.819
lclavicle -3.93594e-014 9.54166e-015
lhumerus -168.939 170.396 -115.317
lradius 33.1178
lwrist 45.4963
lhand -24.6524 353.313
lfingers 7.12502
lthumb 1.84728 383.285
rfemur -73.3324 -8.19588 10.3665
rtibia 74.8711
rfoot 162.661 12.9783
rtoes 2.16305
lfemur -70.02 9.87028 -17.2535
ltibia 75.7468
lfoot -181.016 16.8898
ltoes -45.1483
134
root 17.7603 18.7709 0.0553617 149.091 93.7964 257.096
lowerback 33.2067 -0.664626 2.95473
upperback 15.6165 1.78721 -1.21321
thorax 0.179066 2.12724 -3.33712
lowerneck -22.327 -6.3464 -12.6
upperneck 1.46201 -5.82671 12.9391
head 4.76027 -1.99623 5.57287
rclavicle 2.62396e-014 -6.16232e-014
rhumerus 15.8402 -23.7658 -68.9162
rradius 38.9883
rwrist -18.5757
rhand -19.2461 367.95
rfingers 7.12502
rthumb 7.0676 -381.912
lclavicle 2.62396e-014 -6.16232e-014
lhumerus -163.355 174.619 -109.278
lradius 30.6761
lwrist 43.4975
lhand -23.593 348.897
lfingers 7.12502
lthumb 2.87043 378.857
rfemur -78.3109 -8.50713 16.5616
rtibia 72.1957
rfoot 161.651 9.4162
rtoes -6.73419
lfemur -77.072 9.36101 -14.7343
ltibia 70.8525
lfoot -190.122 15.1234
ltoes -32.7323
135
root 17.9162 18.9046 0.0418373 128.137 93.3741 244.958
lowerback 34.1715 -1.09821 4.19849
upperback 15.8456 1.69924 -0.891497
thorax 0.107439 2.20168 -3.63942
lowerneck -23.1332 -6.75795 -13.2086
upperneck -0.510484 -5.89256 13.5666
head 4.32177 -1.92742 5.8723
rclavicle -7.95139e-015 8.11041e-014
rhumerus 15.0563 -16.3966 -73.5154
rradius 36.0391
rwrist -13.5272
rhand -15.6562 368.742
rfingers 7.12502
rthumb 10.5318 -380.974
lclavicle -7.95139e-015 8.11041e-014
lhumerus -161.232 180.017 -103.717
lradius 30.9205
lwrist 43.3471
lhand -20.4054 350.709
lfingers 7.12502
lthumb 5.9484 380.605
rfemur -83.4547 -8.5561 18.4174
rtibia 68.8333
rfoot 164.148 11.2687
rtoes 12.3188
lfemur -82.2682 8.82132 -15.583
ltibia 67.7431
lfoot -190.97 12.1919
ltoes -25.1696
136
root 18.1693 19.1873 0.0599357 82.1483 91.9582 205.448
lowerback 30.1493 -1.15291 3.79292
upperback 15.9025 1.03851 -0.270224
thorax 1.54175 1.71661 -2.72204
lowerneck -22.5656 -7.01036 -13.7049
upperneck -3.32487 -5.84297 13.9832
head 3.40585 -1.86602 6.10932
rclavicle -4.77083e-014 1.59723e-013
rhumerus 11.2882 -3.03073 -76.068
rradius 36.94
rwrist -12.1631
rhand -5.79933 362.809
rfingers 7.12502
rthumb 20.0253 -386.18
lclavicle -4.77083e-014 1.59723e-013
lhumerus -160.515 187.903 -100.189
lradius 32.0357
lwrist 46.5892
lhand -13.5346 353.928
lfingers 7.12502
lthumb 12.5778 383.529
rfemur -92.2356 -10.0393 18.8423
rtibia 63.994
rfoot 163.447 8.23793
rtoes -5.42966
lfemur -90.6724 7.01226 -18.0093
ltibia 62.389
lfoot -192.018 9.84606
ltoes -16.9899
137
root 18.2997 19.6033 0.0748469 64.8932 92.8573 196.763
lowerback 30.2703 -1.0629 4.2987
upperback 13.9222 1.05252 0.219393
thorax -0.804868 1.47441 -2.5421
lowerneck -22.8501 -6.87854 -14.5021
upperneck -2.74151 -5.55365 14.6778
head 3.64299 -1.69293 6.502
rclavicle -2.46493e-014 6.11387e-014
rhumerus 6.44342 -5.38964 -82.2031
rradius 28.2724
rwrist 4.80293
rhand -8.08892 423.201
rfingers 7.12502
rthumb 17.8233 -326.002
lclavicle -2.46493e-014 6.11387e-014
lhumerus -165.018 201.329 -98.582
lradius 36.2894
lwrist 50.5343
lhand -8.32769 353.195
lfingers 7.12502
lthumb 17.5935 382.419
rfemur -97.7224 -9.70672 20.279
rtibia 60.92
rfoot 163.054 7.06221
rtoes -13.2865
lfemur -96.1361 7.01621 -18.5648
ltibia 57.7036
lfoot -192.087 8.26596
ltoes 0.241611
138
root 18.2915 20.1022 0.0623634 61.5061 93.0178 201.566
lowerback 28.0867 -0.802885 4.38229
upperback 12.4988 1.0409 0.308578
thorax -1.44308 1.26544 -2.47674
lowerneck -21.1696 -6.65113 -15.2545
upperneck -5.07169 -5.1102 15.9525
head 2.72765 -1.48102 7.11593
rclavicle -7.71285e-014 1.36963e-013
rhumerus 4.02867 -40.4669 -90.902
rradius 17.5578
rwrist 107.037
rhand -65.0812 260.242
rfingers 7.12502
rthumb -36.9745 -286.314
lclavicle -7.71285e-014 1.36963e-013
lhumerus -166.482 191.549 -90.6331
lradius 31.1405
lwrist 51.477
lhand -0.825348 346.891
lfingers 7.12502
lthumb 24.7996 375.303
rfemur -103.625 -8.43504 22.3476
rtibia 56.4321
rfoot 164.81 5.46966
rtoes 1.84787
lfemur -101.224 6.62851 -19.8731
ltibia 52.6744
lfoot -191.311 7.70274
ltoes 12.2708
139
root 18.1053 20.5788 0.0470609 32.6316 93.6514 182.72
lowerback 27.8197 -1.22156 4.45192
upperback 10.9127 0.274466 0.0338448
thorax -3.14766 0.682988 -2.62009
lowerneck -20.7909 -5.3869 -12.3062
upperneck -5.71007 -4.07641 12.8155
head 2.11896 -1.18624 5.69732
rclavicle -3.18055e-015 5.58585e-014
rhumerus -14.3607 -13.4662 -82.7066
rradius 44.3928
rwrist 202.586
rhand 6.72417 277.921
rfingers 7.12502
rthumb 32.0131 -250.718
lclavicle -3.18055e-015 5.58585e-014
lhumerus -177.233 195.292 -93.5744
lradius 44.7354
lwrist 61.8642
lhand -0.660516 355.591
lfingers 7.12502
lthumb 24.9576 383.981
rfemur -107.492 -8.58792 24.1004
rtibia 52.2072
rfoot 165.111 9.39802
rtoes 3.18706
lfemur -102.98 4.20245 -21.601
ltibia 49.3037
lfoot -192.22 7.77589
ltoes 17.4534
140
root 17.7026 21.0337 -0.0284836 17.9628 93.8583 176.043
lowerback 22.8701 -1.27769 5.52714
upperback 10.3779 -0.0942884 -0.927402
thorax -1.37753 0.464256 -4.13097
lowerneck -23.181 -4.85095 -7.02066
upperneck -4.07665 -4.36188 6.29134
head 2.60676 -1.62441 2.71425
rclavicle 6.67916e-014 -8.28932e-014
rhumerus -12.4714 9.36013 -87.0359
rradius 45.2859
rwrist 340.314
rhand 9.41711 414.771
rfingers 7.12502
rthumb 34.5733 -331.884
lclavicle 6.67916e-014 -8.28932e-014
lhumerus -179.174 200.856 -97.1683
lradius 46.7159
lwrist 60.3245
lhand -1.88706 355.259
lfingers 7.12502
lthumb 23.7817 383.807
rfemur -112.95 -8.51276 25.6889
rtibia 49.4577
rfoot 167.167 9.92115
rtoes -7.87223
lfemur -105.972 2.43238 -23.3454
ltibia 46.2698
lfoot -192.396 4.9954
ltoes 27.3233
141
root 17.1781 21.449 -0.0603243 -5.59851 92.8498 159.579
lowerback 17.3596 -0.320365 4.19453
upperback 9.71947 0.489039 -1.5019
thorax 0.727412 0.668256 -4.03488
lowerneck -23.7365 -4.80846 -6.36524
upperneck -5.70329 -4.35477 6.03209
head 2.15572 -1.64357 2.53873
rclavicle -1.19271e-015 -1.98785e-016
rhumerus -10.0768 12.3338 -85.4621
rradius 42.6052
rwrist 355.54
rhand -12.2568 404.865
rfingers 7.12502
rthumb 13.8096 -344.657
lclavicle -1.19271e-015 -1.98785e-016
lhumerus -178.362 202.619 -98.6514
lradius 44.8878
lwrist 56.4447
lhand -2.59189 353.142
lfingers 7.12502
lthumb 23.1056 381.776
rfemur -119.18 -6.6857 26.6866
rtibia 46.7476
rfoot 170.611 12.2118
rtoes 7.85376
lfemur -110.329 2.7959 -26.1316
ltibia 43.8269
lfoot -191.404 2.10095
ltoes 36.1674
142
root 16.5038 21.7444 -0.0682946 -6.39477 92.6916 165.43
lowerback 11.1044 0.0558999 2.71969
upperback 9.01163 0.448864 -0.878896
thorax 3.23777 0.503707 -2.47064
lowerneck -24.9329 -4.25951 -5.78033
upperneck -5.77481 -3.7938 5.18426
head 2.21892 -1.44854 2.2204
rclavicle -3.87133e-014 2.40529e-014
rhumerus -8.61359 18.9693 -84.3544
rradius 46.01
rwrist 340.602
rhand -8.51603 400.183
rfingers 7.12502
rthumb 17.4123 -349.057
lclavicle -3.87133e-014 2.40529e-014
lhumerus -178.292 200.202 -97.6273
lradius 44.5245
lwrist 53.6868
lhand -4.81117 351.858
lfingers 7.12502
lthumb 20.9748 380.744
rfemur -125.471 -5.01952 28.7058
rtibia 46.6439
rfoot 167.873 6.80905
rtoes -3.48138
lfemur -115.411 3.50658 -27.95
ltibia 42.1194
lfoot -190.752 1.51919
ltoes 38.3859
143
root 15.7812 21.9155 -0.132232 -32.8684 93.884 146.205
lowerback 7.15803 0.270758 0.78379
upperback 8.36778 0.350606 -0.880536
thorax 4.6911 0.178301 -1.3683
lowerneck -23.2254 -3.78349 -5.26643
upperneck -8.11042 -3.41961 3.10348
head 1.42653 -1.44293 1.67365
rclavicle -2.52953e-014 2.01766e-014
rhumerus -7.96873 19.1014 -83.6243
rradius 48.4638
rwrist 333.321
rhand -5.90425 396.75
rfingers 7.12502
rthumb 19.9244 -352.249
lclavicle -2.52953e-014 2.01766e-014
lhumerus -179.036 198.258 -96.3024
lradius 46.0843
lwrist 51.3762
lhand -8.16028 350.583
lfingers 7.12502
lthumb 17.7546 379.792
rfemur -131.489 -4.87611 28.1967
rtibia 48.7236
rfoot 168.946 8.27017
rtoes 0.976113
lfemur -119.777 2.22081 -30.6781
ltibia 43.23
lfoot -189.34 0.893729
ltoes 40.5161
